#!OML:ASF H:\Terrain\Patient Classification 1\Terrain2\Thursday\justin.ASF
:FULLY-SPECIFIED
:DEGREES
1420
root 19.3511 23.8572 9.71439 717.662 -184.285 -351.964
lowerback 7.43142 1.80845 7.19524
upperback 4.22004 3.38773 3.02596
thorax 0.429313 2.00137 -1.12222
lowerneck -11.7758 1.08033 -10.3372
upperneck 38.843 -2.79206 5.60318
head 15.9152 -3.56592 3.3785
rclavicle 3.70733e-014 -3.18055e-015
rhumerus -27.7311 -5.12419 -84.2929
rradius 27.5373
rwrist -6.34599
rhand -24.3918 8.07401
rfingers 7.12502
rthumb 2.09901 -21.8954
lclavicle 3.70733e-014 -3.18055e-015
lhumerus -38.5714 10.7711 86.0238
lradius 26.2215
lwrist 2.14479
lhand -20.46 20.9265
lfingers 7.12502
lthumb 5.89568 50.8245
rfemur 11.253 -3.76736 30.8281
rtibia 12.9011
rfoot -17.849 2.43406
rtoes 14.3272
lfemur -31.0002 4.76106 -11.5798
ltibia 57.5798
lfoot -4.79125 -7.65617
ltoes 2.23979
1421
root 19.3645 23.8516 9.65554 717.743 -184.398 -351.811
lowerback 7.39734 1.88581 7.46899
upperback 4.18022 3.50192 2.97614
thorax 0.435974 2.06085 -1.3302
lowerneck -11.6632 1.03665 -10.3624
upperneck 38.8159 -2.84969 5.54583
head 15.881 -3.60267 3.34748
rclavicle -3.43401e-014 -1.35174e-014
rhumerus -27.9298 -5.30201 -84.3426
rradius 27.214
rwrist -6.85047
rhand -24.8561 7.92507
rfingers 7.12502
rthumb 1.65059 -22.0483
lclavicle -3.43401e-014 -1.35174e-014
lhumerus -38.6077 10.8525 85.8477
lradius 26.1315
lwrist 1.43134
lhand -19.7451 21.1391
lfingers 7.12502
lthumb 6.58586 51.0167
rfemur 11.7303 -3.70083 31.0379
rtibia 12.2081
rfoot -17.6483 2.58848
rtoes 14.6176
lfemur -31.2391 4.91644 -11.4154
ltibia 56.4519
lfoot -4.33005 -7.23312
ltoes 3.95532
1422
root 19.3764 23.8512 9.58883 717.759 -184.511 -351.981
lowerback 7.37909 2.01814 7.42417
upperback 4.17795 3.6596 2.84274
thorax 0.46253 2.13556 -1.45091
lowerneck -11.3649 0.925425 -10.4139
upperneck 38.5078 -2.95167 5.50427
head 15.6647 -3.63281 3.32034
rclavicle -2.37051e-014 1.13307e-014
rhumerus -28.1951 -5.62897 -84.2633
rradius 26.9988
rwrist -7.2137
rhand -25.0468 8.61244
rfingers 7.12502
rthumb 1.46633 -21.3623
lclavicle -2.37051e-014 1.13307e-014
lhumerus -38.566 10.7351 85.8337
lradius 25.8859
lwrist 1.30035
lhand -20.085 21.3504
lfingers 7.12502
lthumb 6.25778 51.238
rfemur 12.3319 -3.63504 30.8655
rtibia 11.4578
rfoot -17.4057 2.80293
rtoes 15.3361
lfemur -31.3607 5.14009 -11.682
ltibia 55.1784
lfoot -4.16143 -6.71944
ltoes 1.8178
1423
root 19.3826 23.8522 9.51898 717.778 -184.515 -352.331
lowerback 7.3746 2.07128 7.13399
upperback 4.10242 3.69154 2.70987
thorax 0.379223 2.13407 -1.43294
lowerneck -11.5367 0.973926 -10.2994
upperneck 38.7186 -2.8575 5.32016
head 15.7992 -3.61553 3.23549
rclavicle 6.58474e-015 9.14409e-015
rhumerus -28.5722 -5.76255 -84.1362
rradius 26.8199
rwrist -7.23817
rhand -24.7544 8.89006
rfingers 7.12502
rthumb 1.7488 -21.0825
lclavicle 6.58474e-015 9.14409e-015
lhumerus -38.7454 10.6088 85.8828
lradius 25.706
lwrist 1.80826
lhand -21.0434 21.0269
lfingers 7.12502
lthumb 5.33241 50.9398
rfemur 12.9159 -3.54351 30.4732
rtibia 10.7554
rfoot -17.2242 2.90976
rtoes 15.9867
lfemur -31.4106 5.18858 -12.2009
ltibia 53.7749
lfoot -4.29046 -6.19881
ltoes -1.21353
1424
root 19.3916 23.8427 9.45158 717.757 -184.547 -352.305
lowerback 7.36007 1.98154 6.98013
upperback 4.11932 3.56838 2.8258
thorax 0.377397 2.07229 -1.22064
lowerneck -11.9142 1.13583 -10.3316
upperneck 39.0224 -2.5322 5.15187
head 16.0092 -3.52556 3.22227
rclavicle -5.71506e-016 -5.24792e-014
rhumerus -28.7555 -5.08708 -84.1432
rradius 26.7185
rwrist -7.4984
rhand -24.6894 8.1444
rfingers 7.12502
rthumb 1.81158 -21.8277
lclavicle -5.71506e-016 -5.24792e-014
lhumerus -38.9099 11.0625 85.8839
lradius 25.6766
lwrist 1.88025
lhand -21.4956 20.4076
lfingers 7.12502
lthumb 4.89582 50.331
rfemur 13.5808 -3.24233 30.5759
rtibia 10.0329
rfoot -16.9827 2.77523
rtoes 16.8087
lfemur -31.3754 5.23736 -12.2471
ltibia 52.2949
lfoot -3.86409 -5.64358
ltoes -1.53062
1425
root 19.4085 23.8234 9.38251 717.732 -184.62 -352.039
lowerback 7.28496 1.96834 7.07354
upperback 4.19002 3.56429 2.9651
thorax 0.488524 2.08251 -1.12156
lowerneck -12.0504 1.15983 -10.3977
upperneck 39.0289 -2.42807 5.13747
head 16.0353 -3.48638 3.24652
rclavicle 3.60794e-014 2.06736e-014
rhumerus -28.8274 -5.1377 -83.9008
rradius 26.4073
rwrist -6.6284
rhand -24.8319 8.20401
rfingers 7.12502
rthumb 1.67396 -21.7692
lclavicle 3.60794e-014 2.06736e-014
lhumerus -38.9498 11.379 85.8588
lradius 25.546
lwrist 1.78567
lhand -21.8124 19.9695
lfingers 7.12502
lthumb 4.58992 49.8998
rfemur 14.2133 -3.07796 30.9807
rtibia 9.44271
rfoot -16.8003 2.64888
rtoes 17.756
lfemur -31.2751 5.35528 -11.9546
ltibia 50.7362
lfoot -2.72055 -5.0897
ltoes -0.638668
1426
root 19.4253 23.8085 9.30958 717.693 -184.612 -352.03
lowerback 7.26837 2.03533 7.08879
upperback 4.16252 3.64658 2.90797
thorax 0.480084 2.12051 -1.19348
lowerneck -11.9425 1.15401 -10.3277
upperneck 39.0423 -2.49714 5.15913
head 16.0224 -3.50811 3.23146
rclavicle -5.92627e-014 7.15625e-015
rhumerus -29.0909 -5.79564 -83.6216
rradius 26.0432
rwrist -5.69038
rhand -25.0651 8.92714
rfingers 7.12502
rthumb 1.44872 -21.0477
lclavicle -5.92627e-014 7.15625e-015
lhumerus -38.9745 11.2897 85.7387
lradius 25.2058
lwrist 1.77108
lhand -21.7879 19.8269
lfingers 7.12502
lthumb 4.61356 49.7567
rfemur 14.7695 -2.97476 31.0949
rtibia 8.98023
rfoot -16.8301 2.45193
rtoes 18.365
lfemur -31.0767 5.29616 -11.9002
ltibia 49.1211
lfoot -1.52595 -4.54505
ltoes 0.564145
